<svg width="300" height="180" viewBox="0 0 300 161" fill="none" xmlns="http://www.w3.org/2000/svg">
<path d="M316.23 69.687L281.954 43.1375C263.006 28.461 236.395 28.9583 218.008 44.3326L142.686 107.315C120.86 125.566 88.3218 122.429 70.3843 100.345L7.66851 23.1321C5.0313 19.8853 1.07118 18 -3.11172 18C-10.782 18 -17 24.218 -17 31.8883V213C-17 241.167 5.83348 264 34 264H285C313.167 264 336 241.167 336 213V110.007C336 94.2326 328.701 79.3463 316.23 69.687Z" fill="#263238"/>
<rect x="97" y="54.117" width="5" height="71" transform="rotate(-38.5642 97 54.117)" fill="#263238"/>
<rect x="117" y="63.117" width="5" height="52.318" transform="rotate(-38.5642 117 63.117)" fill="#263238"/>
<rect x="116.567" y="47.7943" width="5" height="64.241" transform="rotate(-38.5642 116.567 47.7943)" fill="#263238"/>
<rect x="75" y="71.4396" width="5" height="71" transform="rotate(-38.5642 75 71.4396)" fill="#263238"/>
<rect x="95" y="80.4396" width="5" height="52.318" transform="rotate(-38.5642 95 80.4396)" fill="#263238"/>
<rect x="94.5673" y="65.117" width="5" height="64.241" transform="rotate(-38.5642 94.5673 65.117)" fill="#263238"/>
<rect x="127.004" y="47.1388" width="5" height="57.8185" transform="rotate(-38.5642 127.004 47.1388)" fill="#263238"/>
<rect x="144.044" y="54.715" width="5" height="41.7066" transform="rotate(-38.5642 144.044 54.715)" fill="#263238"/>
<rect x="132" y="24.0951" width="5" height="71" transform="rotate(-38.5642 132 24.0951)" fill="#263238"/>
<rect x="152" y="33.0951" width="5" height="52.318" transform="rotate(-38.5642 152 33.0951)" fill="#263238"/>
<rect x="151.567" y="17.7724" width="5" height="64.241" transform="rotate(-38.5642 151.567 17.7724)" fill="#263238"/>
<rect x="162.004" y="17.117" width="5" height="57.8185" transform="rotate(-38.5642 162.004 17.117)" fill="#263238"/>
<rect x="179.044" y="24.6931" width="5" height="41.7066" transform="rotate(-38.5642 179.044 24.6931)" fill="#263238"/>
<rect x="185.433" y="19.0951" width="5" height="52.318" transform="rotate(-38.5642 185.433 19.0951)" fill="#263238"/>
<rect x="185" y="3.77243" width="5" height="64.241" transform="rotate(-38.5642 185 3.77243)" fill="#263238"/>
<rect x="195.436" y="3.11696" width="5" height="57.8185" transform="rotate(-38.5642 195.436 3.11696)" fill="#263238"/>
<rect x="212.477" y="10.6931" width="5" height="41.7066" transform="rotate(-38.5642 212.477 10.6931)" fill="#263238"/>
</svg>
